<?xml version="1.0" encoding="UTF-8" standalone="no"?>
<svg
   xmlns:osb="http://www.openswatchbook.org/uri/2009/osb"
   xmlns:dc="http://purl.org/dc/elements/1.1/"
   xmlns:cc="http://creativecommons.org/ns#"
   xmlns:rdf="http://www.w3.org/1999/02/22-rdf-syntax-ns#"
   xmlns:svg="http://www.w3.org/2000/svg"
   xmlns="http://www.w3.org/2000/svg"
   xmlns:xlink="http://www.w3.org/1999/xlink"
   xmlns:sodipodi="http://sodipodi.sourceforge.net/DTD/sodipodi-0.dtd"
   xmlns:inkscape="http://www.inkscape.org/namespaces/inkscape"
   width="1000mm"
   height="297mm"
   viewBox="0 0 1000 297"
   version="1.1"
   id="svg8"
   inkscape:version="1.0.2 (e86c8708, 2021-01-15)"
   sodipodi:docname="pedestal.svg"
   inkscape:export-filename="/Users/stuart/Documents/Programming/JParty/jparty/data/player_lights5.png"
   inkscape:export-xdpi="50"
   inkscape:export-ydpi="50">
  <defs
     id="defs2">
    <linearGradient
       id="linearGradient3357"
       osb:paint="solid">
      <stop
         style="stop-color:#000000;stop-opacity:1;"
         offset="0"
         id="stop3355" />
    </linearGradient>
    <linearGradient
       id="linearGradient3327"
       osb:paint="solid">
      <stop
         style="stop-color:#000000;stop-opacity:1;"
         offset="0"
         id="stop3325" />
    </linearGradient>
    <rect
       x="181.4964"
       y="27.253454"
       width="165.2603"
       height="29.572896"
       id="rect3183" />
    <rect
       x="165.87476"
       y="16.793728"
       width="194.79858"
       height="45.808994"
       id="rect3177" />
    <linearGradient
       inkscape:collect="always"
       id="linearGradient3008">
      <stop
         style="stop-color:#000000;stop-opacity:0.44354838"
         offset="0"
         id="stop3004" />
      <stop
         style="stop-color:#000000;stop-opacity:0;"
         offset="1"
         id="stop3006" />
    </linearGradient>
    <linearGradient
       inkscape:collect="always"
       id="linearGradient2979">
      <stop
         style="stop-color:#2e1010;stop-opacity:1"
         offset="0"
         id="stop2975" />
      <stop
         style="stop-color:#5f2121;stop-opacity:0"
         offset="1"
         id="stop2977" />
    </linearGradient>
    <linearGradient
       inkscape:collect="always"
       id="linearGradient2973">
      <stop
         style="stop-color:#2e1010;stop-opacity:1"
         offset="0"
         id="stop2969" />
      <stop
         style="stop-color:#5f2121;stop-opacity:0"
         offset="1"
         id="stop2971" />
    </linearGradient>
    <linearGradient
       inkscape:collect="always"
       id="linearGradient2887">
      <stop
         style="stop-color:#696adc;stop-opacity:0.36693549"
         offset="0"
         id="stop2883" />
      <stop
         style="stop-color:#5f2121;stop-opacity:1"
         offset="1"
         id="stop2885" />
    </linearGradient>
    <linearGradient
       inkscape:collect="always"
       id="linearGradient2823">
      <stop
         style="stop-color:#bba4f5;stop-opacity:0.39919358"
         offset="0"
         id="stop2819" />
      <stop
         style="stop-color:#5f2121;stop-opacity:0"
         offset="1"
         id="stop2821" />
    </linearGradient>
    <linearGradient
       id="linearGradient897"
       osb:paint="solid">
      <stop
         style="stop-color:#5f4a21;stop-opacity:1;"
         offset="0"
         id="stop895" />
    </linearGradient>
    <linearGradient
       inkscape:collect="always"
       id="linearGradient966">
      <stop
         style="stop-color:#fdd894;stop-opacity:1;"
         offset="0"
         id="stop962" />
      <stop
         style="stop-color:#8d5c03;stop-opacity:1"
         offset="1"
         id="stop964" />
    </linearGradient>
    <linearGradient
       inkscape:collect="always"
       id="linearGradient922">
      <stop
         style="stop-color:#000080;stop-opacity:1;"
         offset="0"
         id="stop918" />
      <stop
         style="stop-color:#000000;stop-opacity:0.97983873"
         offset="1"
         id="stop920" />
    </linearGradient>
    <linearGradient
       inkscape:collect="always"
       xlink:href="#linearGradient922"
       id="linearGradient924"
       x1="509.3306"
       y1="107.22749"
       x2="508.97278"
       y2="184.29726"
       gradientUnits="userSpaceOnUse"
       gradientTransform="matrix(0.9926325,0,0,1.7750561,2.1484823,-101.8946)" />
    <linearGradient
       inkscape:collect="always"
       xlink:href="#linearGradient966"
       id="linearGradient970"
       gradientUnits="userSpaceOnUse"
       x1="420.61099"
       y1="64.08609"
       x2="420.61099"
       y2="77.345284"
       gradientTransform="translate(0,-9.1595042)" />
    <linearGradient
       inkscape:collect="always"
       xlink:href="#linearGradient966"
       id="linearGradient991"
       gradientUnits="userSpaceOnUse"
       x1="420.61099"
       y1="64.08609"
       x2="420.61099"
       y2="77.345284"
       gradientTransform="translate(0,-40.216673)" />
    <radialGradient
       inkscape:collect="always"
       xlink:href="#linearGradient2979"
       id="radialGradient2827"
       cx="823.18085"
       cy="166.11746"
       fx="823.18085"
       fy="166.11746"
       r="49.721966"
       gradientTransform="matrix(1.7851863,0,0,1.4727089,-638.56452,-137.43112)"
       gradientUnits="userSpaceOnUse" />
    <linearGradient
       inkscape:collect="always"
       xlink:href="#linearGradient2887"
       id="linearGradient2881"
       x1="951.96735"
       y1="60.603706"
       x2="1000"
       y2="60.603706"
       gradientUnits="userSpaceOnUse"
       gradientTransform="matrix(0.22587614,0,0,1,774.12384,0)" />
    <linearGradient
       inkscape:collect="always"
       xlink:href="#linearGradient2973"
       id="linearGradient2963"
       x1="685.44708"
       y1="60.603706"
       x2="862.41614"
       y2="60.603706"
       gradientUnits="userSpaceOnUse"
       gradientTransform="matrix(0.48025485,0,0,0.8334867,-329.18938,0)" />
    <linearGradient
       inkscape:collect="always"
       xlink:href="#linearGradient2823"
       id="linearGradient2967"
       gradientUnits="userSpaceOnUse"
       gradientTransform="matrix(0.48025485,0,0,0.8334867,585.9164,0)"
       x1="853.02704"
       y1="61.872715"
       x2="687.54236"
       y2="59.566868" />
    <radialGradient
       inkscape:collect="always"
       xlink:href="#linearGradient2979"
       id="radialGradient2983"
       gradientUnits="userSpaceOnUse"
       gradientTransform="matrix(1.7851863,0,0,1.4727089,-1289.4415,-137.43112)"
       cx="823.18085"
       cy="166.11746"
       fx="823.18085"
       fy="166.11746"
       r="49.721966" />
    <linearGradient
       inkscape:collect="always"
       xlink:href="#linearGradient3008"
       id="linearGradient3012"
       x1="993.68176"
       y1="36.469627"
       x2="986.61841"
       y2="36.541691"
       gradientUnits="userSpaceOnUse"
       gradientTransform="matrix(1.8635194,0,0,1,-857.83451,-8.4666671)" />
    <linearGradient
       inkscape:collect="always"
       xlink:href="#linearGradient3008"
       id="linearGradient3031"
       gradientUnits="userSpaceOnUse"
       x1="993.68176"
       y1="36.469627"
       x2="986.61841"
       y2="36.541691"
       gradientTransform="matrix(1.8097438,0,0,1.0330741,-804.41298,21.394964)" />
    <linearGradient
       inkscape:collect="always"
       xlink:href="#linearGradient3008"
       id="linearGradient3012-9"
       x1="993.68176"
       y1="36.469627"
       x2="986.61841"
       y2="36.541691"
       gradientUnits="userSpaceOnUse"
       gradientTransform="matrix(1,0,0,1.0353458,-1000.4167,21.326485)" />
    <linearGradient
       inkscape:collect="always"
       xlink:href="#linearGradient3008"
       id="linearGradient3057"
       gradientUnits="userSpaceOnUse"
       gradientTransform="matrix(1,0,0,1.0353458,-1000.4167,-9.8943446)"
       x1="993.68176"
       y1="36.469627"
       x2="986.61841"
       y2="36.541691" />
    <linearGradient
       inkscape:collect="always"
       xlink:href="#linearGradient2823"
       id="linearGradient3065"
       gradientUnits="userSpaceOnUse"
       gradientTransform="matrix(0.48025485,0,0,0.1968512,585.9164,237.44831)"
       x1="853.02704"
       y1="61.872715"
       x2="687.54236"
       y2="59.566868" />
    <linearGradient
       inkscape:collect="always"
       xlink:href="#linearGradient2973"
       id="linearGradient3067"
       gradientUnits="userSpaceOnUse"
       gradientTransform="matrix(0.48025485,0,0,0.1968512,-329.18938,237.44831)"
       x1="685.44708"
       y1="60.603706"
       x2="862.41614"
       y2="60.603706" />
    <rect
       x="181.4964"
       y="27.253454"
       width="165.2603"
       height="29.572896"
       id="rect3194" />
    <filter
       inkscape:collect="always"
       style="color-interpolation-filters:sRGB"
       id="filter3256"
       x="-0.049858319"
       width="1.0997166"
       y="-0.14357754"
       height="1.2871551">
      <feGaussianBlur
         inkscape:collect="always"
         stdDeviation="0.59881963"
         id="feGaussianBlur3258" />
    </filter>
    <filter
       inkscape:label="Ripple"
       inkscape:menu="Distort"
       inkscape:menu-tooltip="Horizontal rippling of edges"
       style="color-interpolation-filters:sRGB;"
       id="filter3323">
      <feTurbulence
         numOctaves="1"
         baseFrequency="0.002 0.107"
         id="feTurbulence3317" />
      <feColorMatrix
         values="2 0 0 0 0 0 0 0 0 0 0 0 0 0 0 0 0 0 0.5 0.5"
         result="result91"
         id="feColorMatrix3319" />
      <feDisplacementMap
         yChannelSelector="A"
         xChannelSelector="R"
         scale="14.3"
         in="SourceGraphic"
         in2="result91"
         id="feDisplacementMap3321"
         result="fbSourceGraphic" />
      <feColorMatrix
         result="fbSourceGraphicAlpha"
         in="fbSourceGraphic"
         values="0 0 0 -1 0 0 0 0 -1 0 0 0 0 -1 0 0 0 0 1 0"
         id="feColorMatrix3361" />
      <feTurbulence
         id="feTurbulence3363"
         numOctaves="1"
         baseFrequency="0.002 0.107"
         in="fbSourceGraphic" />
      <feColorMatrix
         id="feColorMatrix3365"
         values="2 0 0 0 0 0 0 0 0 0 0 0 0 0 0 0 0 0 0.5 0.5"
         result="result91" />
      <feDisplacementMap
         in2="result91"
         id="feDisplacementMap3367"
         yChannelSelector="A"
         xChannelSelector="R"
         scale="14.3"
         in="fbSourceGraphic" />
    </filter>
    <filter
       inkscape:collect="always"
       style="color-interpolation-filters:sRGB"
       id="filter3433"
       x="-0.054975164"
       width="1.1099503"
       y="-0.15138014"
       height="1.3027603">
      <feGaussianBlur
         inkscape:collect="always"
         stdDeviation="4.4621183"
         id="feGaussianBlur3435" />
    </filter>
    <filter
       inkscape:collect="always"
       style="color-interpolation-filters:sRGB"
       id="filter3577"
       x="-0.063491523"
       width="1.126983"
       y="-0.20321307"
       height="1.4064261">
      <feGaussianBlur
         inkscape:collect="always"
         stdDeviation="3.0379313"
         id="feGaussianBlur3579" />
    </filter>
    <filter
       inkscape:collect="always"
       style="color-interpolation-filters:sRGB"
       id="filter3617"
       x="-0.063207063"
       width="1.1264141"
       y="-0.19178023"
       height="1.3835605">
      <feGaussianBlur
         inkscape:collect="always"
         stdDeviation="4.1194137"
         id="feGaussianBlur3619" />
    </filter>
    <clipPath
       clipPathUnits="userSpaceOnUse"
       id="clipPath3706">
      <rect
         style="opacity:1;fill:#1010a1;fill-opacity:1;stroke:none;stroke-width:11.3123;stroke-miterlimit:4;stroke-dasharray:none;stroke-opacity:0.980392"
         id="rect3708"
         width="194.79857"
         height="70.743011"
         x="165.87476"
         y="213.3159" />
    </clipPath>
    <clipPath
       clipPathUnits="userSpaceOnUse"
       id="clipPath3727">
      <rect
         style="opacity:1;fill:#1010a1;fill-opacity:1;stroke:none;stroke-width:7.99894;stroke-miterlimit:4;stroke-dasharray:none;stroke-opacity:0.980392"
         id="rect3729"
         width="194.79857"
         height="35.371502"
         x="165.87476"
         y="69.00341" />
    </clipPath>
    <clipPath
       clipPathUnits="userSpaceOnUse"
       id="clipPath1007">
      <rect
         style="opacity:1;fill:#1010a1;fill-opacity:1;stroke:none;stroke-width:6.41162;stroke-miterlimit:4;stroke-dasharray:none;stroke-opacity:0.980392"
         id="rect1009"
         width="194.79857"
         height="22.725653"
         x="165.87476"
         y="261.33325" />
    </clipPath>
  </defs>
  <sodipodi:namedview
     id="base"
     pagecolor="#ffffff"
     bordercolor="#666666"
     borderopacity="1.0"
     inkscape:pageopacity="0.0"
     inkscape:pageshadow="2"
     inkscape:zoom="0.60248278"
     inkscape:cx="821.71609"
     inkscape:cy="-1079.5048"
     inkscape:document-units="mm"
     inkscape:current-layer="layer7"
     inkscape:document-rotation="0"
     showgrid="false"
     inkscape:window-width="1652"
     inkscape:window-height="943"
     inkscape:window-x="0"
     inkscape:window-y="0"
     inkscape:window-maximized="0"
     showguides="false" />
  <metadata
     id="metadata5">
    <rdf:RDF>
      <cc:Work
         rdf:about="">
        <dc:format>image/svg+xml</dc:format>
        <dc:type
           rdf:resource="http://purl.org/dc/dcmitype/StillImage" />
        <dc:title />
      </cc:Work>
    </rdf:RDF>
  </metadata>
  <g
     inkscape:label="Background"
     inkscape:groupmode="layer"
     id="layer1"
     style="display:inline"
     sodipodi:insensitive="true">
    <path
       id="rect836-5"
       style="fill:url(#linearGradient924);fill-opacity:1;fill-rule:nonzero;stroke-width:1.82694"
       d="M 0,101.72944 H 1000 V 296.61889 H 0 Z" />
    <text
       xml:space="preserve"
       id="text3175"
       style="font-style:normal;font-weight:normal;font-size:10.58329999999999949px;line-height:1.25;font-family:sans-serif;white-space:pre;shape-inside:url(#rect3177);fill:#ffffff;fill-opacity:1;stroke:none;"><tspan
         x="165.875"
         y="26.448434"><tspan
           style="fill:#ffffff">$600</tspan></tspan></text>
  </g>
  <g
     inkscape:groupmode="layer"
     id="layer2"
     inkscape:label="Wood"
     style="display:inline"
     sodipodi:insensitive="true">
    <rect
       style="fill:#5f2121;fill-opacity:1;stroke-width:1.07186"
       id="rect834"
       width="1000"
       height="101.72944"
       x="0"
       y="0"
       ry="0" />
    <rect
       style="opacity:1;fill:url(#radialGradient2827);fill-opacity:1;stroke-width:1.44162;stroke-opacity:0"
       id="rect893"
       width="176.96906"
       height="101.02477"
       x="747.3598"
       y="0" />
    <rect
       style="opacity:1;fill:url(#linearGradient2963);fill-opacity:1;stroke-width:0.999047;stroke-opacity:0"
       id="rect2959"
       width="84.99025"
       height="101.02477"
       x="0"
       y="0" />
    <rect
       style="opacity:1;fill:url(#linearGradient2967);fill-opacity:1;stroke-width:0.999047;stroke-opacity:0"
       id="rect2965"
       width="84.99025"
       height="101.02477"
       x="915.10565"
       y="0" />
    <rect
       style="opacity:1;fill:url(#radialGradient2983);fill-opacity:1;stroke-width:1.44162;stroke-opacity:0"
       id="rect2981"
       width="176.96906"
       height="101.02477"
       x="96.484268"
       y="0" />
    <rect
       style="fill:#5f2121;fill-opacity:1;stroke-width:0.520904"
       id="rect3059"
       width="1000"
       height="24.026253"
       x="0"
       y="237.44832"
       ry="0" />
    <rect
       style="opacity:1;fill:url(#linearGradient3067);fill-opacity:1;stroke-width:0.485518;stroke-opacity:0"
       id="rect3061"
       width="84.99025"
       height="23.859825"
       x="0"
       y="237.44832" />
    <rect
       style="opacity:1;fill:url(#linearGradient3065);fill-opacity:1;stroke-width:0.485518;stroke-opacity:0"
       id="rect3063"
       width="84.99025"
       height="23.859825"
       x="915.10565"
       y="237.44832" />
  </g>
  <g
     inkscape:groupmode="layer"
     id="layer3"
     inkscape:label="Lights"
     style="display:inline"
     sodipodi:insensitive="true">
    <rect
       style="display:inline;fill:url(#linearGradient970);fill-opacity:1;stroke:#807900;stroke-width:0.359756;stroke-opacity:0"
       id="rect926-1"
       width="999.64026"
       height="11.464216"
       x="0.17987794"
       y="52.713203"
       ry="0" />
    <rect
       style="display:inline;fill:url(#linearGradient991);fill-opacity:1;stroke:#807900;stroke-width:0.359756;stroke-opacity:0"
       id="rect987"
       width="999.64026"
       height="11.464216"
       x="0.17987794"
       y="21.656034"
       ry="0" />
    <rect
       style="opacity:1;fill:#000000;fill-opacity:0.887097;stroke-width:1.3622;stroke-opacity:0"
       id="rect2987"
       width="7"
       height="11.445452"
       x="993"
       y="21.674799" />
    <rect
       style="opacity:1;fill:#000000;fill-opacity:0.887097;stroke-width:1.38314;stroke-opacity:0"
       id="rect3000"
       width="7"
       height="11.8"
       x="993"
       y="52.533325" />
    <rect
       style="opacity:1;fill:url(#linearGradient3012);fill-opacity:1;stroke-width:1.85955;stroke-opacity:0"
       id="rect3002"
       width="13.044636"
       height="11.445452"
       x="980.37201"
       y="21.674799" />
    <rect
       style="opacity:1;fill:url(#linearGradient3031);fill-opacity:1;stroke-width:1.86258;stroke-opacity:0"
       id="rect3029"
       width="12.668207"
       height="11.824"
       x="980.74841"
       y="52.533325" />
    <rect
       style="display:inline;fill:url(#linearGradient3012-9);fill-opacity:1;stroke-width:1.38607;stroke-opacity:0"
       id="rect3002-0"
       width="7"
       height="11.85"
       x="-14"
       y="52.533325"
       transform="scale(-1,1)" />
    <rect
       style="opacity:1;fill:#000000;fill-opacity:0.887097;stroke-width:1.38607;stroke-opacity:0"
       id="rect3051"
       width="7"
       height="11.85"
       x="0"
       y="52.533325" />
    <rect
       style="display:inline;fill:url(#linearGradient3057);fill-opacity:1;stroke-width:1.38607;stroke-opacity:0"
       id="rect3053"
       width="7"
       height="11.85"
       x="-14"
       y="21.312487"
       transform="scale(-1,1)" />
    <rect
       style="opacity:1;fill:#000000;fill-opacity:0.887097;stroke-width:1.38607;stroke-opacity:0"
       id="rect3055"
       width="7"
       height="11.85"
       x="0"
       y="21.312487" />
  </g>
  <g
     inkscape:groupmode="layer"
     id="layer4"
     inkscape:label="Player"
     style="display:inline"
     sodipodi:insensitive="true">
    <rect
       style="opacity:1;fill:#5f2121;fill-opacity:1;stroke-width:1.39802;stroke-opacity:0"
       id="rect3072"
       width="216.20892"
       height="293.57397"
       x="155.18892"
       y="1.9769291" />
    <path
       id="rect3092"
       style="opacity:1;fill:#000000;fill-opacity:1;stroke-width:1.4127;stroke-opacity:0"
       d="m 161.01172,295.68206 c 68.18815,0 136.3763,0 204.56445,0 0,-95.96108 0,-191.92216 0,-287.8832319 -68.18815,0 -136.3763,0 -204.56445,0 0,95.9610719 0,191.9221519 0,287.8832319 z" />
    <rect
       style="opacity:1;fill:#1010a1;fill-opacity:1;stroke:none;stroke-width:9.10293;stroke-miterlimit:4;stroke-dasharray:none;stroke-opacity:0.980392"
       id="rect3154"
       width="194.79857"
       height="45.808994"
       x="165.87476"
       y="16.793728" />
    <rect
       style="opacity:1;fill:#1010a1;fill-opacity:1;stroke:none;stroke-width:7.99894;stroke-miterlimit:4;stroke-dasharray:none;stroke-opacity:0.980392"
       id="rect3158"
       width="194.79857"
       height="35.371502"
       x="165.87476"
       y="69.00341" />
    <rect
       style="opacity:1;fill:#1010a1;fill-opacity:1;stroke:none;stroke-width:16.2027;stroke-miterlimit:4;stroke-dasharray:none;stroke-opacity:0.980392"
       id="rect3160"
       width="194.799"
       height="145.127"
       x="165.87476"
       y="110.62978" />
    <rect
       style="opacity:1;fill:#1010a1;fill-opacity:1;stroke:none;stroke-width:6.41161;stroke-miterlimit:4;stroke-dasharray:none;stroke-opacity:0.980392"
       id="rect3173"
       width="194.79857"
       height="22.725653"
       x="165.87476"
       y="261.33325" />
    <g
       id="g3704"
       clip-path="url(#clipPath1007)">
      <path
         style="opacity:0.703;fill:none;stroke:#000000;stroke-width:5;stroke-linecap:butt;stroke-linejoin:miter;stroke-miterlimit:4;stroke-dasharray:none;stroke-opacity:1;filter:url(#filter3433)"
         d="m 165.87476,284.0589 c 38.29695,-22.44989 142.77172,-48.73809 201.70879,-47.59219"
         id="path3407"
         sodipodi:nodetypes="cc"
         clip-path="none" />
      <path
         style="opacity:0.703;fill:none;stroke:#000000;stroke-width:5;stroke-linecap:butt;stroke-linejoin:miter;stroke-miterlimit:4;stroke-dasharray:none;stroke-opacity:1;filter:url(#filter3617)"
         d="m 218.05156,290.53839 c 45.24445,-20.62576 98.44898,-33.76389 147.83818,-33.12841"
         id="path3437"
         sodipodi:nodetypes="cc" />
      <path
         style="opacity:0.703;fill:none;stroke:#000000;stroke-width:5;stroke-linecap:butt;stroke-linejoin:miter;stroke-miterlimit:4;stroke-dasharray:none;stroke-opacity:1;filter:url(#filter3577)"
         d="m 279.57528,287.78407 c 17.11311,-7.971 63.09479,-13.53492 87.83963,-13.49238"
         id="path3439"
         sodipodi:nodetypes="cc" />
    </g>
    <g
       id="g3713"
       clip-path="url(#clipPath3727)"
       inkscape:export-filename="/Users/stuart/Documents/Programming/JParty/jparty/data/player_active.png"
       inkscape:export-xdpi="50"
       inkscape:export-ydpi="50">
      <path
         style="opacity:0.753;fill:none;stroke:#000000;stroke-width:5;stroke-linecap:butt;stroke-linejoin:miter;stroke-miterlimit:4;stroke-dasharray:none;stroke-opacity:1;filter:url(#filter3433)"
         d="M 165.87476,125.3088 C 204.17171,102.85891 308.64648,76.570725 367.58355,77.716625"
         id="path3693"
         sodipodi:nodetypes="cc"
         transform="matrix(1,0,0,0.54154295,0,35.613144)" />
      <path
         style="opacity:0.753;fill:none;stroke:#000000;stroke-width:5;stroke-linecap:butt;stroke-linejoin:miter;stroke-miterlimit:4;stroke-dasharray:none;stroke-opacity:1;filter:url(#filter3617)"
         d="M 218.05156,131.78829 C 263.29601,111.16253 316.50054,98.024403 365.88974,98.659883"
         id="path3695"
         sodipodi:nodetypes="cc"
         transform="matrix(1,0,0,0.54154295,0,35.613144)" />
      <path
         style="opacity:0.753;fill:none;stroke:#000000;stroke-width:5;stroke-linecap:butt;stroke-linejoin:miter;stroke-miterlimit:4;stroke-dasharray:none;stroke-opacity:1;filter:url(#filter3577)"
         d="m 279.57528,129.03397 c 17.11311,-7.971 63.09479,-13.53492 87.83963,-13.49238"
         id="path3697"
         sodipodi:nodetypes="cc"
         transform="matrix(1,0,0,0.54154295,0,35.613144)" />
    </g>
  </g>
  <g
     inkscape:groupmode="layer"
     id="layer7"
     inkscape:label="Activation"
     style="display:none">
    <rect
       style="display:inline;opacity:1;fill:#ffffff;fill-opacity:1;stroke:none;stroke-width:7.99894;stroke-miterlimit:4;stroke-dasharray:none;stroke-opacity:0.980392"
       id="rect3279"
       width="194.79857"
       height="35.371502"
       x="165.87476"
       y="69.00341" />
    <rect
       style="display:inline;opacity:1;fill:#ffffff;fill-opacity:1;stroke:none;stroke-width:6.41161;stroke-miterlimit:4;stroke-dasharray:none;stroke-opacity:0.980392"
       id="rect3281"
       width="194.79857"
       height="22.725662"
       x="165.87476"
       y="261.33325" />
  </g>
  <g
     inkscape:groupmode="layer"
     id="layer5"
     inkscape:label="Time Lights"
     style="display:inline">
    <rect
       style="opacity:1;fill:#b5b5b5;fill-opacity:1;stroke:none;stroke-width:6.83783;stroke-miterlimit:4;stroke-dasharray:none;stroke-opacity:0.980392"
       id="rect3079"
       width="216.28201"
       height="10.744596"
       x="155.1889"
       y="0" />
    <g
       id="g3150"
       transform="matrix(0.8343291,0,0,1.0758492,24.374146,-13.763822)"
       style="opacity:0.92">
      <rect
         style="opacity:1;fill:#000000;fill-opacity:1;stroke:none;stroke-width:15.577;stroke-miterlimit:4;stroke-dasharray:none;stroke-opacity:0.980392"
         id="rect3105"
         width="23.736143"
         height="6.6673031"
         x="188.89465"
         y="14.463763"
         ry="0" />
      <rect
         style="opacity:1;fill:#000000;fill-opacity:1;stroke:none;stroke-width:15.577;stroke-miterlimit:4;stroke-dasharray:none;stroke-opacity:0.980392"
         id="rect3107"
         width="23.736143"
         height="6.6673031"
         x="217.5031"
         y="14.463763"
         ry="0" />
      <rect
         style="fill:#000000;fill-opacity:1;stroke:none;stroke-width:15.577;stroke-miterlimit:4;stroke-dasharray:none;stroke-opacity:0.980392"
         id="rect3107-2"
         width="23.736143"
         height="6.6673031"
         x="160.28621"
         y="14.463763"
         ry="0" />
      <rect
         style="opacity:1;fill:#000000;fill-opacity:1;stroke:none;stroke-width:15.577;stroke-miterlimit:4;stroke-dasharray:none;stroke-opacity:0.980392"
         id="rect3129"
         width="23.736143"
         height="6.6673031"
         x="246.11154"
         y="14.463763"
         ry="0" />
      <rect
         style="opacity:1;fill:#000000;fill-opacity:1;stroke:none;stroke-width:15.577;stroke-miterlimit:4;stroke-dasharray:none;stroke-opacity:0.980392"
         id="rect3131"
         width="23.736143"
         height="6.6673031"
         x="303.32846"
         y="14.463763"
         ry="0" />
      <rect
         style="opacity:1;fill:#000000;fill-opacity:1;stroke:none;stroke-width:15.577;stroke-miterlimit:4;stroke-dasharray:none;stroke-opacity:0.980392"
         id="rect3133"
         width="23.736143"
         height="6.6673031"
         x="331.93689"
         y="14.463763"
         ry="0" />
      <rect
         style="fill:#000000;fill-opacity:1;stroke:none;stroke-width:15.577;stroke-miterlimit:4;stroke-dasharray:none;stroke-opacity:0.980392"
         id="rect3135"
         width="23.736143"
         height="6.6673031"
         x="274.72"
         y="14.463763"
         ry="0" />
      <rect
         style="opacity:1;fill:#000000;fill-opacity:1;stroke:none;stroke-width:15.577;stroke-miterlimit:4;stroke-dasharray:none;stroke-opacity:0.980392"
         id="rect3137"
         width="23.736143"
         height="6.6673031"
         x="389.15378"
         y="14.463762"
         ry="0" />
      <rect
         style="opacity:1;fill:#000000;fill-opacity:1;stroke:none;stroke-width:15.577;stroke-miterlimit:4;stroke-dasharray:none;stroke-opacity:0.980392"
         id="rect3139"
         width="23.736143"
         height="6.6673031"
         x="360.54532"
         y="14.463763"
         ry="0" />
    </g>
  </g>
  <g
     inkscape:groupmode="layer"
     id="layer6"
     inkscape:label="Sample Text"
     sodipodi:insensitive="true"
     style="display:inline">
    <text
       xml:space="preserve"
       id="text3181"
       style="font-style:normal;font-weight:normal;font-size:10.58329999999999949px;line-height:1.25;font-family:sans-serif;white-space:pre;shape-inside:url(#rect3183);display:inline;opacity:0.659259;fill:#000000;fill-opacity:1;stroke:none;filter:url(#filter3256);"
       transform="matrix(3.9606784,0,0,3.2442051,-514.52164,-67.158387)"><tspan
         x="181.49609"
         y="36.909371"><tspan
           style="font-style:normal;font-variant:normal;font-weight:bold;font-stretch:normal;font-size:10.5833px;font-family:sans-serif;-inkscape-font-specification:'sans-serif, Bold';font-variant-ligatures:normal;font-variant-caps:normal;font-variant-numeric:normal;font-variant-east-asian:normal;fill:#000000">$600</tspan></tspan></text>
    <text
       xml:space="preserve"
       id="text3192"
       style="font-style:normal;font-weight:normal;font-size:10.58329999999999949px;line-height:1.25;font-family:sans-serif;white-space:pre;shape-inside:url(#rect3194);display:inline;fill:#ffffff;fill-opacity:1;stroke:none;"
       transform="matrix(3.9606784,0,0,3.2442051,-516.63832,-69.275055)"><tspan
         x="181.49609"
         y="36.909371"><tspan
           style="font-style:normal;font-variant:normal;font-weight:bold;font-stretch:normal;font-size:10.5833px;font-family:sans-serif;-inkscape-font-specification:'sans-serif, Bold';font-variant-ligatures:normal;font-variant-caps:normal;font-variant-numeric:normal;font-variant-east-asian:normal;fill:#ffffff">$600</tspan></tspan></text>
    <g
       id="g3276"
       style="opacity:1">
      <path
         style="opacity:1;fill:#ffffff;fill-opacity:1;stroke:none;stroke-width:10;stroke-miterlimit:4;stroke-dasharray:none;stroke-opacity:0.980392"
         id="path3264"
         d="m 239.05542,131.11786 c -0.1785,-3.25203 -0.17573,-6.72421 -1.73978,-9.68994 -0.31646,-0.60009 -0.76531,-1.1204 -1.14797,-1.6806 -0.55358,-0.45844 -1.04659,-1.0019 -1.66073,-1.37531 -3.60169,-2.18987 -8.45926,-2.14168 -12.48886,-1.67512 -1.21052,0.14016 -2.39988,0.42499 -3.59982,0.63748 -1.11136,0.3525 -2.2493,0.63018 -3.3341,1.05749 -1.01425,0.39951 -2.00336,0.87184 -2.94746,1.41684 -4.6486,2.68349 -9.87385,4.87576 -12.87399,9.52584 -0.35365,0.54815 -0.59138,1.16294 -0.88707,1.74441 -0.1099,0.54594 -0.31317,1.08117 -0.3297,1.63781 -0.10757,3.62351 4.30773,7.62673 6.63856,9.89802 5.10279,4.35789 10.46758,5.8027 16.87062,7.03882 3.25488,0.75663 7.46307,0.62479 10.46773,2.1839 0.63206,0.32798 1.18396,0.79155 1.77594,1.18733 3.86308,3.72978 6.09852,8.72483 7.48405,13.84847 0.30623,1.13242 0.52207,2.28737 0.7831,3.43106 0.68133,4.77525 1.81014,10.14244 -0.10689,14.80514 -0.27607,0.67149 -0.70855,1.26745 -1.06282,1.90117 -1.3138,1.50549 -1.44318,1.81956 -3.08217,3.01879 -0.61003,0.44636 -2.57027,1.59111 -1.91363,1.21669 9.28831,-5.2962 5.77571,-3.26383 3.25498,-2.19691 -0.62316,0.26376 -1.26189,0.48911 -1.89284,0.73367 -4.19918,1.60024 -8.57261,1.4698 -12.9577,0.99123 -3.64981,-0.4868 -7.26703,-1.42555 -10.38884,-3.44542 -0.58318,-0.37733 -1.12433,-0.81596 -1.6865,-1.22394 -3.39889,-2.5004 -5.38327,-5.17613 -6.89066,-9.07293 -0.87241,-2.63896 -1.02721,-3.08387 0.58788,-5.28607 0.31043,-0.30094 0.60385,-0.62048 0.93128,-0.90282 0.40192,-0.34655 0.82636,-0.66665 1.25376,-0.98124 0.46472,-0.34206 1.92702,-1.26622 1.42154,-0.98791 -11.20706,6.17033 -5.45123,3.07865 -2.62503,2.04667 2.32877,-0.65992 4.76254,-1.13326 7.19102,-0.94595 0,0 7.1297,-5.08277 7.1297,-5.08277 v 0 c -2.55072,-0.25946 -5.10207,0.18218 -7.57944,0.78646 -4.55129,1.42348 -7.54428,3.61229 -12.04521,6.32888 -0.65407,0.39478 -2.14264,1.60867 -2.69905,2.15523 -0.33523,0.32929 -0.6191,0.70708 -0.92865,1.06063 -1.53934,2.51176 -1.13073,3.31562 -0.10967,5.98939 1.6678,3.86422 3.80477,6.87558 7.23298,9.40663 0.57634,0.43735 1.12751,0.91004 1.72904,1.31205 3.18093,2.12586 6.90192,3.14618 10.65055,3.68124 4.41749,0.55382 8.83828,0.89609 13.12474,-0.61525 5.22656,-1.91429 7.29853,-3.35242 13.11953,-6.81425 1.95947,-1.16533 3.60107,-2.73071 4.84489,-4.63794 0.31282,-0.68105 0.70028,-1.33254 0.93846,-2.04314 1.6204,-4.83443 0.42278,-10.1759 -0.30084,-15.04123 -0.26944,-1.16334 -0.49404,-2.33799 -0.8083,-3.49003 -1.44033,-5.28002 -3.75415,-10.41566 -7.49739,-14.46282 -0.61487,-0.46225 -1.17955,-1.00016 -1.84459,-1.38676 -3.04286,-1.76884 -7.33518,-1.54385 -10.69786,-2.22428 -6.25558,-1.08221 -11.69545,-2.31978 -16.67777,-6.57861 -2.09265,-2.06306 -6.20901,-5.99447 -5.91403,-9.32065 0.0427,-0.48131 0.2398,-0.93617 0.3597,-1.40426 0.8907,-1.62008 0.89315,-1.84961 2.27809,-3.29363 0.59836,-0.62389 2.75913,-1.94227 1.91717,-1.74639 -1.66846,0.38816 -3.031,1.59774 -4.564,2.36217 -2.0196,1.00707 8.19907,-4.44892 6.20704,-2.70357 1.18158,-0.24129 2.34968,-0.56208 3.54475,-0.72387 3.79405,-0.51363 8.38948,-0.58871 11.83326,1.38175 0.55536,0.31776 1.00975,0.78612 1.51462,1.17917 0.3532,0.50199 0.7688,0.96543 1.05961,1.50597 1.5573,2.89465 1.51456,6.34892 1.35785,9.52778 0,0 7.78092,-3.96457 7.78092,-3.96457 z" />
      <path
         style="opacity:1;fill:#ffffff;fill-opacity:1;stroke:none;stroke-width:10;stroke-miterlimit:4;stroke-dasharray:none;stroke-opacity:0.980392"
         id="path3266"
         d="m 258.63879,142.5427 c 0.23916,4.31216 -0.0103,8.63722 -0.15803,12.94949 -0.2051,5.47394 -0.17374,10.95224 -0.19782,16.42888 0.0463,4.19341 0.39151,8.49653 1.79635,12.48462 0.20453,0.58064 0.48283,1.13259 0.72424,1.69889 1.32324,2.1429 3.39841,3.80078 6.05329,3.17074 0.4822,-0.11444 0.9277,-0.349 1.39157,-0.5235 7.53512,-4.22859 9.23822,-4.19984 12.21055,-10.61953 0.17552,-0.35907 0.35105,-0.71813 0.52657,-1.07719 0,0 -7.87963,3.57782 -7.87963,3.57782 v 0 c -0.17127,0.3586 -0.34256,0.71719 -0.51382,1.07578 -0.54489,1.10617 -1.07905,2.21201 -1.84606,3.18788 -1.95802,2.49125 -6.88314,5.00595 4.23458,-1.48698 -0.41894,0.2247 -0.81761,0.4922 -1.25685,0.67412 -2.44091,1.01095 -4.09726,-0.20418 -5.50164,-2.16177 -0.24672,-0.52266 -0.53215,-1.02876 -0.7402,-1.56799 -1.48976,-3.86105 -1.74334,-8.091 -1.83724,-12.18011 0.0204,-5.47848 0.10428,-10.9565 0.25988,-16.43289 0.14494,-4.39713 0.39647,-8.78922 0.55919,-13.18526 0,0 -7.82493,3.987 -7.82493,3.987 z" />
      <path
         style="opacity:1;fill:#ffffff;fill-opacity:1;stroke:none;stroke-width:10;stroke-miterlimit:4;stroke-dasharray:none;stroke-opacity:0.980392"
         id="path3268"
         d="m 279.49085,162.9197 c 0.30499,3.9077 -0.0188,7.85607 0.53282,11.74707 0.13126,0.92602 0.3529,1.83695 0.52933,2.75542 0.87434,3.71044 2.50412,7.31256 5.81213,9.45481 0.45667,0.29574 0.96694,0.49906 1.45042,0.74859 2.11875,0.71956 4.13652,0.23534 6.02435,-0.88377 8.93725,-5.29805 6.41008,-3.0724 10.30716,-6.83268 3.34182,-3.3693 5.64917,-7.50688 7.33679,-11.90263 0.90336,-2.45367 1.31831,-5.03326 1.45245,-7.63334 0.0473,-5.25182 1.04646,-3.27503 -7.75721,1.84838 0.53134,4.01079 0.54232,8.07329 0.59547,12.11299 0.0172,3.75418 0.6263,7.44168 2.20562,10.86891 0.34319,0.74472 0.76052,1.45299 1.14078,2.17948 1.94442,2.9331 4.70371,5.54574 8.28593,6.20597 0.48958,0.0902 0.9924,0.0809 1.48857,0.1213 1.54067,-0.15135 0.82436,-0.0207 2.15554,-0.35365 0,0 6.87792,-5.33891 6.87792,-5.33891 v 0 c -1.27262,0.52216 -0.58637,0.29162 -2.06912,0.66002 -0.47797,0.0153 -0.95713,0.0829 -1.43394,0.046 -3.46763,-0.26791 -6.17641,-2.75022 -8.03677,-5.49588 -0.36454,-0.70053 -0.77044,-1.38103 -1.09366,-2.10156 -1.50235,-3.34924 -1.95098,-6.98682 -2.0339,-10.62318 -0.0918,-4.13587 -0.20828,-8.27131 -0.27249,-12.40772 -9.22716,4.31449 -7.77164,1.01077 -7.85268,6.20707 -0.0991,2.47461 -0.46911,4.92529 -1.32376,7.26297 -1.6846,4.33248 -4.06085,8.33133 -7.47649,11.54059 -3.33806,2.9222 -1.95329,1.50168 4.15885,-1.71969 0.48816,-0.25728 -0.93467,0.58994 -1.42714,0.83883 -1.34043,0.67745 -2.61747,0.99063 -4.10831,0.67231 -0.46604,-0.19361 -0.95682,-0.33602 -1.39814,-0.58082 -3.29668,-1.82872 -4.8433,-5.28998 -5.69248,-8.79465 -0.16378,-0.89441 -0.37193,-1.78183 -0.49134,-2.68323 -0.52197,-3.93991 -0.2209,-7.93785 -0.0911,-11.89108 0,0 -7.79561,3.97205 -7.79561,3.97205 z" />
      <path
         style="opacity:0.97037;fill:#ffffff;fill-opacity:1;stroke:none;stroke-width:10;stroke-miterlimit:4;stroke-dasharray:none;stroke-opacity:0.980392"
         id="path3270"
         d="m 258.06453,161.98104 c 3.95915,-0.75204 7.84693,-1.83133 11.74392,-2.84599 0,0 6.2525,-4.78929 6.2525,-4.78929 v 0 c -3.66535,0.94346 -7.32837,1.94575 -11.07963,2.49826 0,0 -6.91679,5.13702 -6.91679,5.13702 z" />
    </g>
  </g>
  <g
     inkscape:groupmode="layer"
     id="layer8"
     inkscape:label="Red Lights"
     style="display:none">
    <g
       inkscape:groupmode="layer"
       id="layer9"
       inkscape:label="1"
       style="display:inline">
      <rect
         style="opacity:0.92;fill:#ff0000;fill-opacity:1;stroke:none;stroke-width:14.758;stroke-miterlimit:4;stroke-dasharray:none;stroke-opacity:0.980392"
         id="rect982"
         width="19.803755"
         height="7.1730127"
         x="158.10559"
         y="1.7970061"
         ry="0" />
      <rect
         style="opacity:0.92;fill:#ff0000;fill-opacity:1;stroke:none;stroke-width:14.758;stroke-miterlimit:4;stroke-dasharray:none;stroke-opacity:0.980392"
         id="rect992"
         width="19.803755"
         height="7.1730127"
         x="349.05646"
         y="1.7970051"
         ry="0" />
    </g>
    <g
       inkscape:groupmode="layer"
       id="layer10"
       inkscape:label="2"
       style="display:inline">
      <rect
         style="display:inline;opacity:0.92;fill:#ff0000;fill-opacity:1;stroke:none;stroke-width:14.758;stroke-miterlimit:4;stroke-dasharray:none;stroke-opacity:0.980392"
         id="rect978"
         width="19.803755"
         height="7.1730127"
         x="181.97446"
         y="1.7970062"
         ry="0" />
      <rect
         style="display:inline;opacity:0.92;fill:#ff0000;fill-opacity:1;stroke:none;stroke-width:14.758;stroke-miterlimit:4;stroke-dasharray:none;stroke-opacity:0.980392"
         id="rect994"
         width="19.803755"
         height="7.1730127"
         x="325.18759"
         y="1.7970062"
         ry="0" />
    </g>
    <g
       inkscape:groupmode="layer"
       id="layer11"
       inkscape:label="3"
       style="display:inline">
      <rect
         style="display:inline;opacity:0.92;fill:#ff0000;fill-opacity:1;stroke:none;stroke-width:14.758;stroke-miterlimit:4;stroke-dasharray:none;stroke-opacity:0.980392"
         id="rect980"
         width="19.803755"
         height="7.1730127"
         x="205.84331"
         y="1.7970061"
         ry="0" />
      <rect
         style="display:inline;opacity:0.92;fill:#ff0000;fill-opacity:1;stroke:none;stroke-width:14.758;stroke-miterlimit:4;stroke-dasharray:none;stroke-opacity:0.980392"
         id="rect988"
         width="19.803755"
         height="7.1730127"
         x="301.31876"
         y="1.7970061"
         ry="0" />
    </g>
    <g
       inkscape:groupmode="layer"
       id="layer12"
       inkscape:label="4"
       style="display:inline">
      <rect
         style="display:inline;opacity:0.92;fill:#ff0000;fill-opacity:1;stroke:none;stroke-width:14.758;stroke-miterlimit:4;stroke-dasharray:none;stroke-opacity:0.980392"
         id="rect984"
         width="19.803755"
         height="7.1730127"
         x="229.71216"
         y="1.7970061"
         ry="0" />
      <rect
         style="display:inline;opacity:0.92;fill:#ff0000;fill-opacity:1;stroke:none;stroke-width:14.758;stroke-miterlimit:4;stroke-dasharray:none;stroke-opacity:0.980392"
         id="rect986"
         width="19.803755"
         height="7.1730127"
         x="277.44989"
         y="1.7970061"
         ry="0" />
    </g>
    <g
       inkscape:groupmode="layer"
       id="layer13"
       inkscape:label="5"
       style="display:inline">
      <rect
         style="display:inline;opacity:0.92;fill:#ff0000;fill-opacity:1;stroke:none;stroke-width:14.758;stroke-miterlimit:4;stroke-dasharray:none;stroke-opacity:0.980392"
         id="rect990"
         width="19.803755"
         height="7.1730127"
         x="253.58104"
         y="1.7970061"
         ry="0" />
    </g>
  </g>
</svg>
